<svg width="17" height="16" viewBox="0 0 17 16" fill="none" xmlns="http://www.w3.org/2000/svg">
<path fill-rule="evenodd" clip-rule="evenodd" d="M14.9167 8C14.9167 11.5438 12.0438 14.4167 8.5 14.4167C4.95617 14.4167 2.08333 11.5438 2.08333 8C2.08333 4.45617 4.95617 1.58333 8.5 1.58333C12.0438 1.58333 14.9167 4.45617 14.9167 8ZM15.5 8C15.5 11.866 12.366 15 8.5 15C4.63401 15 1.5 11.866 1.5 8C1.5 4.13401 4.63401 1 8.5 1C12.366 1 15.5 4.13401 15.5 8ZM8.2085 11.5V8.29165H5V7.70831H8.2085V4.5H8.79183V7.70831H12V8.29165H8.79183V11.5H8.2085Z" fill="white"/>
</svg>
